<?xml version="1.0" encoding="UTF-8" standalone="no"?>
<svg
   xmlns:dc="http://purl.org/dc/elements/1.1/"
   xmlns:cc="http://creativecommons.org/ns#"
   xmlns:rdf="http://www.w3.org/1999/02/22-rdf-syntax-ns#"
   xmlns:svg="http://www.w3.org/2000/svg"
   xmlns="http://www.w3.org/2000/svg"
   xmlns:sodipodi="http://sodipodi.sourceforge.net/DTD/sodipodi-0.dtd"
   xmlns:inkscape="http://www.inkscape.org/namespaces/inkscape"
   id="mainLogo"
   viewBox="0 0 270 159.85427"
   width="4500"
   height="2664.2378"
   version="1.1"
   sodipodi:docname="noBackground.svg"
   inkscape:version="1.0.1 (3bc2e813f5, 2020-09-07)">
  <metadata
     id="metadata16">
    <rdf:RDF>
      <cc:Work
         rdf:about="">
        <dc:format>image/svg+xml</dc:format>
        <dc:type
           rdf:resource="http://purl.org/dc/dcmitype/StillImage" />
      </cc:Work>
    </rdf:RDF>
  </metadata>
  <sodipodi:namedview
     pagecolor="#ffffff"
     bordercolor="#666666"
     borderopacity="1"
     objecttolerance="10"
     gridtolerance="10"
     guidetolerance="10"
     inkscape:pageopacity="0"
     inkscape:pageshadow="2"
     inkscape:window-width="2560"
     inkscape:window-height="1412"
     id="namedview14"
     showgrid="false"
     inkscape:zoom="0.1678"
     inkscape:cx="2250"
     inkscape:cy="1332.1189"
     inkscape:window-x="0"
     inkscape:window-y="0"
     inkscape:window-maximized="1"
     inkscape:current-layer="mainLogo" />
  <defs
     id="defs2" />
  <g
     data-refid="icon"
     fill="#6cc5af"
     data-box="96.95 70.07 106.11 117.00 "
     transform="matrix(1.8281248,0,0,1.8281248,73.718753,-2.9249995)"
     id="g9">
    <svg
       version="1.1"
       x="0px"
       y="0px"
       viewBox="0 0 67 67"
       xml:space="preserve"
       width="67"
       height="67"
       id="FLDSRC_ICON">
      <g
   id="g6">
        <path
   d="m 62.3,37.5 -4.4,-7 C 57.4,29.7 57.2,28.8 57.2,27.9 57.2,20.6 54.3,14 49.5,9.3 44.7,4.5 38.1,1.6 30.9,1.6 23.6,1.6 17,4.6 12.3,9.3 7.4,14 4.5,20.6 4.5,27.9 c 0,8.5 4.1,16.1 10.4,21 2.6,2 4.7,4.5 6.1,7.4 1.2,2.3 1.9,4.8 2.1,7.3 0.1,1.1 1,2 2.1,2 h 19.4 c 1.2,0 2.1,-1 2.1,-2.1 v -6.7 c 0,-1.3 1.1,-2.4 2.4,-2.4 h 3.7 c 2.4,0 4.3,-1.9 4.3,-4.3 v -7.3 c 0,-1.3 1.1,-2.4 2.4,-2.4 h 1.2 c 1.4,-0.3 2.3,-1.8 1.6,-2.9 z M 32,44 c -0.2,0.1 -0.4,0.1 -0.6,0 -1.8,-1 -11,-6.5 -15.2,-13.7 h 7.2 c 0.4,0 0.8,-0.2 1.1,-0.6 l 2,-3 2.2,6.9 c 0.2,0.5 0.6,0.8 1.1,0.9 0.1,0 0.1,0 0.2,0 0.4,0 0.9,-0.2 1.1,-0.6 L 37,24.4 39.2,30 c 0.2,0.5 0.7,0.8 1.2,0.8 H 47 C 42.6,37.8 33.8,43 32,44 Z M 48.1,29 C 48,28.9 47.8,28.9 47.6,28.9 h -6.8 l -2.6,-6.6 c -0.2,-0.5 -0.6,-0.8 -1.1,-0.8 -0.5,0 -1,0.2 -1.2,0.6 L 30,31.5 27.8,24.7 c -0.2,-0.5 -0.6,-0.8 -1.1,-0.9 -0.5,-0.1 -1,0.1 -1.3,0.6 l -2.7,3.9 h -7.4 c -0.2,0 -0.3,0 -0.4,0.1 C 14.4,26.7 14,25 14,23.2 c 0,-5.9 4.8,-10.6 10.7,-10.6 2.5,0 4.9,1.5 6.7,3.1 0.2,0.2 0.6,0.2 0.8,0 1.8,-1.6 4.2,-3.1 6.7,-3.1 5.9,0 10.6,4.8 10.6,10.7 0,2 -0.5,3.9 -1.4,5.7 z"
   id="path4" />
      </g>
    </svg>
  </g>
  <path
     data-refid="title"
     fill="#095959"
     d="M 5.0753271,154.34686 H -4.5751013e-8 V 136.00604 H 5.1785104 q 2.3925621,0 4.2305142,1.05763 1.8379524,1.05763 2.8375404,3.01166 1.006036,1.95403 1.018934,4.48202 v 0 1.17371 q 0,2.59248 -1.006037,4.54651 -0.999587,1.95404 -2.8568864,2.99877 -1.8572989,1.04473 -4.3272485,1.07052 z M 5.243,137.99876 H 2.4183579 v 14.36828 h 2.547337 q 2.7923973,0 4.3465954,-1.73477 1.5606467,-1.74122 1.5606467,-4.9528 v 0 -1.07053 q 0,-3.12129 -1.4703614,-4.85606 Q 7.9386629,138.02456 5.243,137.99876 Z m 16.961053,16.59961 v 0 q -2.766602,0 -4.507819,-1.8186 -1.734769,-1.81861 -1.734769,-4.86896 v 0 -0.42563 q 0,-2.03142 0.773874,-3.62432 0.773875,-1.59289 2.166849,-2.49574 1.392974,-0.89641 3.011662,-0.89641 v 0 q 2.663418,0 4.13378,1.74767 1.47681,1.75412 1.47681,5.01084 v 0 0.97379 h -9.234903 q 0.05159,2.01207 1.180159,3.25672 1.122118,1.2382 2.863336,1.2382 v 0 q 1.23175,0 2.089461,-0.50302 0.857711,-0.50301 1.502607,-1.33493 v 0 l 1.418769,1.10922 q -1.708972,2.63117 -5.139816,2.63117 z M 21.91385,142.38405 v 0 q -1.405872,0 -2.366767,1.02539 -0.954445,1.02538 -1.180158,2.87623 v 0 h 6.822994 v -0.17412 q -0.09673,-1.77991 -0.954446,-2.7537 -0.857711,-0.9738 -2.321623,-0.9738 z m 19.818544,5.08823 v 0.21281 q 0,3.1084 -1.425219,5.01084 -1.425219,1.90244 -3.856475,1.90244 v 0 q -2.482848,0 -3.901618,-1.57354 v 0 6.56503 h -2.334521 v -18.86964 h 2.134604 l 0.109632,1.50906 q 1.425219,-1.76057 3.953209,-1.76057 v 0 q 2.457052,0 3.88872,1.85085 1.431668,1.85085 1.431668,5.15272 z m -2.334522,-0.0516 v 0 q 0,-2.30873 -0.980241,-3.64366 -0.980241,-1.33494 -2.695663,-1.33494 v 0 q -2.115257,0 -3.172886,1.87665 v 0 6.51344 q 1.044731,1.86375 3.198682,1.86375 v 0 q 1.676728,0 2.663418,-1.32848 0.98669,-1.32849 0.98669,-3.94676 z m 11.879881,-6.77785 v 2.16684 q -0.528814,-0.0903 -1.147914,-0.0903 v 0 q -2.289379,0 -3.108396,1.95403 v 0 9.67343 h -2.334521 v -13.62664 h 2.270032 l 0.03869,1.57355 q 1.147914,-1.82506 3.250273,-1.82506 v 0 q 0.677141,0 1.031833,0.17413 z m 7.554346,13.95553 v 0 q -2.766601,0 -4.507819,-1.8186 -1.734769,-1.81861 -1.734769,-4.86896 v 0 -0.42563 q 0,-2.03142 0.773875,-3.62432 0.773874,-1.59289 2.166848,-2.49574 1.392974,-0.89641 3.011662,-0.89641 v 0 q 2.663418,0 4.133777,1.74767 1.476811,1.75412 1.476811,5.01084 v 0 0.97379 h -9.2349 q 0.05159,2.01207 1.180158,3.25672 1.122118,1.2382 2.863336,1.2382 v 0 q 1.23175,0 2.089461,-0.50302 0.857711,-0.50301 1.502604,-1.33493 v 0 l 1.41877,1.10922 q -1.70897,2.63117 -5.139814,2.63117 z m -0.290203,-12.21432 v 0 q -1.405872,0 -2.366766,1.02539 -0.954446,1.02538 -1.180159,2.87623 v 0 h 6.822994 v -0.17412 q -0.09673,-1.77991 -0.954445,-2.7537 -0.857711,-0.9738 -2.321624,-0.9738 z M 74.78127,150.729 v 0 q 0,-0.94155 -0.709385,-1.46391 -0.715834,-0.52237 -2.482847,-0.90286 -1.773463,-0.37403 -2.811744,-0.90285 -1.038282,-0.52881 -1.534852,-1.26399 -0.496569,-0.72874 -0.496569,-1.73477 v 0 q 0,-1.67673 1.41877,-2.83754 1.412321,-1.15437 3.617863,-1.15437 v 0 q 2.315175,0 3.759741,1.19306 1.444566,1.19951 1.444566,3.06325 v 0 h -2.34742 q 0,-0.96089 -0.812568,-1.65093 -0.812568,-0.69004 -2.044319,-0.69004 v 0 q -1.270444,0 -1.992727,0.54817 -0.715834,0.55461 -0.715834,1.45101 v 0 q 0,0.84481 0.670692,1.27044 0.664242,0.43208 2.411909,0.81902 1.741217,0.39339 2.824642,0.9351 1.083424,0.54171 1.605789,1.30269 0.522366,0.76097 0.522366,1.8573 v 0 q 0,1.82505 -1.457464,2.92782 -1.463913,1.10277 -3.791985,1.10277 v 0 q -1.638035,0 -2.895581,-0.5804 -1.263995,-0.58041 -1.97338,-1.61869 -0.709385,-1.03828 -0.709385,-2.24424 v 0 h 2.328073 q 0.06449,1.16726 0.935098,1.8573 0.877058,0.68359 2.315175,0.68359 v 0 q 1.322036,0 2.121706,-0.53526 0.79967,-0.53526 0.79967,-1.43167 z m 5.439693,-10.00878 h 2.328073 v 15.20019 q 0,3.93386 -3.559823,3.93386 v 0 q -0.767426,0 -1.425219,-0.23216 v 0 -1.86375 q 0.406284,0.10318 1.057629,0.10318 v 0 q 0.780323,0 1.193056,-0.42563 0.406284,-0.41918 0.406284,-1.46391 v 0 z m -0.238611,-3.61786 v 0 q 0,-0.55461 0.348244,-0.948 0.341794,-0.39983 1.012485,-0.39983 v 0 q 0.677141,0 1.031833,0.39338 0.354693,0.38694 0.354693,0.95445 0,0.56751 -0.354693,0.948 -0.354692,0.37404 -1.031833,0.37404 -0.67714,0 -1.018934,-0.37404 -0.341795,-0.38049 -0.341795,-0.948 z m 17.180518,17.2445 h -2.444154 q -0.199918,-0.40628 -0.328897,-1.43811 v 0 q -1.625136,1.68962 -3.875821,1.68962 v 0 q -2.018523,0 -3.308314,-1.14146 -1.289791,-1.13502 -1.289791,-2.88913 v 0 q 0,-2.12816 1.618688,-3.30832 1.618687,-1.17371 4.552962,-1.17371 v 0 h 2.263583 v -1.07052 q 0,-1.2253 -0.728732,-1.94759 -0.728732,-0.72228 -2.153951,-0.72228 v 0 q -1.244648,0 -2.089461,0.62555 -0.844813,0.632 -0.844813,1.5284 v 0 h -2.340971 q 0,-1.02538 0.722283,-1.97338 0.722283,-0.948 1.966931,-1.50261 1.2382,-0.55461 2.727908,-0.55461 v 0 q 2.353868,0 3.688802,1.17371 1.334934,1.18016 1.386525,3.24383 v 0 6.27483 q 0,1.87665 0.477223,2.98587 v 0 z m -6.307078,-1.77346 v 0 q 1.089874,0 2.076564,-0.56751 0.980241,-0.5675 1.41877,-1.47681 v 0 -2.79239 h -1.825054 q -4.282106,0 -4.282106,2.50219 v 0 q 0,1.09632 0.735181,1.71542 0.728731,0.6191 1.876645,0.6191 z m 16.585298,-5.40422 h -4.3208 v 7.17768 h -2.41836 v -18.34082 h 6.76496 q 3.01166,0 4.71418,1.5413 1.70898,1.53485 1.70898,4.06284 v 0 q 0,2.66987 -1.67028,4.11443 -1.67028,1.44457 -4.77868,1.44457 z m -4.3208,-9.17042 v 7.19059 h 4.3466 q 1.94113,0 2.97296,-0.91575 1.03184,-0.9093 1.03184,-2.63762 v 0 q 0,-1.63804 -1.03184,-2.61828 -1.03183,-0.98024 -2.83754,-1.01894 v 0 z m 12.71119,9.57025 v -0.16122 q 0,-2.00563 0.78678,-3.60497 0.78677,-1.59934 2.19264,-2.46995 1.39942,-0.86416 3.20513,-0.86416 v 0 q 2.7795,0 4.50137,1.92179 1.72187,1.92824 1.72187,5.12692 v 0 0.16767 q 0,1.98628 -0.76742,3.57273 -0.76098,1.57999 -2.1733,2.45705 -1.41877,0.8835 -3.25672,0.8835 v 0 q -2.77305,0 -4.49492,-1.92823 -1.71543,-1.92824 -1.71543,-5.10113 z m 2.34097,0.11608 v 0 q 0,2.26359 1.05118,3.63721 1.05118,1.37363 2.8182,1.37363 v 0 q 1.77346,0 2.81819,-1.39297 1.04473,-1.39298 1.04473,-3.89517 v 0 q 0,-2.24424 -1.06408,-3.63721 -1.06407,-1.38653 -2.82464,-1.38653 v 0 q -1.72832,0 -2.78595,1.36718 -1.05763,1.37363 -1.05763,3.93386 z m 24.50119,-0.21281 v 0.21281 q 0,3.1084 -1.42521,5.01084 -1.42522,1.90244 -3.85648,1.90244 v 0 q -2.48285,0 -3.90162,-1.57354 v 0 6.56503 h -2.33452 v -18.86964 h 2.13461 l 0.10963,1.50906 q 1.42522,-1.76057 3.95321,-1.76057 v 0 q 2.45705,0 3.88872,1.85085 1.43166,1.85085 1.43166,5.15272 z m -2.33452,-0.0516 v 0 q 0,-2.30873 -0.98024,-3.64366 -0.98024,-1.33494 -2.69566,-1.33494 v 0 q -2.11526,0 -3.17289,1.87665 v 0 6.51344 q 1.04473,1.86375 3.19868,1.86375 v 0 q 1.67673,0 2.66342,-1.32848 0.98669,-1.32849 0.98669,-3.94676 z m 4.6764,0.14832 v -0.16122 q 0,-2.00563 0.78678,-3.60497 0.78677,-1.59934 2.19264,-2.46995 1.39942,-0.86416 3.20513,-0.86416 v 0 q 2.7795,0 4.50137,1.92179 1.72187,1.92824 1.72187,5.12692 v 0 0.16767 q 0,1.98628 -0.76742,3.57273 -0.76098,1.57999 -2.1733,2.45705 -1.41877,0.8835 -3.25672,0.8835 v 0 q -2.77305,0 -4.49492,-1.92823 -1.71543,-1.92824 -1.71543,-5.10113 z m 2.34098,0.11608 v 0 q 0,2.26359 1.05117,3.63721 1.05118,1.37363 2.8182,1.37363 v 0 q 1.77346,0 2.81819,-1.39297 1.04473,-1.39298 1.04473,-3.89517 v 0 q 0,-2.24424 -1.06408,-3.63721 -1.06407,-1.38653 -2.82464,-1.38653 v 0 q -1.72832,0 -2.78595,1.36718 -1.05762,1.37363 -1.05762,3.93386 z m 19.57418,-7.04225 v 2.16684 q -0.52881,-0.0903 -1.14791,-0.0903 v 0 q -2.28938,0 -3.1084,1.95403 v 0 9.67343 h -2.33452 v -13.62664 h 2.27003 l 0.0387,1.57355 q 1.14791,-1.82506 3.25027,-1.82506 v 0 q 0.67714,0 1.03183,0.17413 z m 1.27337,6.92617 v -0.16122 q 0,-2.00563 0.78677,-3.60497 0.78677,-1.59934 2.19265,-2.46995 1.39942,-0.86416 3.20513,-0.86416 v 0 q 2.7795,0 4.50137,1.92179 1.72187,1.92824 1.72187,5.12692 v 0 0.16767 q 0,1.98628 -0.76743,3.57273 -0.76097,1.57999 -2.1733,2.45705 -1.41877,0.8835 -3.25672,0.8835 v 0 q -2.77305,0 -4.49492,-1.92823 -1.71542,-1.92824 -1.71542,-5.10113 z m 2.34097,0.11608 v 0 q 0,2.26359 1.05118,3.63721 1.05118,1.37363 2.81819,1.37363 v 0 q 1.77347,0 2.8182,-1.39297 1.04473,-1.39298 1.04473,-3.89517 v 0 q 0,-2.24424 -1.06408,-3.63721 -1.06408,-1.38653 -2.82464,-1.38653 v 0 q -1.72832,0 -2.78595,1.36718 -1.05763,1.37363 -1.05763,3.93386 z m 12.4223,-0.0903 v -0.17412 q 0,-3.14064 1.48326,-5.04309 1.48326,-1.90889 3.89517,-1.90889 v 0 q 2.39256,0 3.78553,1.63804 v 0 V 135 h 2.33452 v 19.34686 h -2.14105 l -0.11608,-1.46391 q -1.39942,1.71542 -3.88872,1.71542 v 0 q -2.37321,0 -3.86292,-1.94113 -1.48971,-1.94114 -1.48971,-5.06243 z m 2.32807,0.0903 v 0 q 0,2.31518 0.95445,3.62432 0.96089,1.30913 2.64407,1.30913 v 0 q 2.21844,0 3.23737,-1.98627 v 0 -6.26194 q -1.04473,-1.92824 -3.21158,-1.92824 v 0 q -1.70897,0 -2.66986,1.32204 -0.95445,1.32204 -0.95445,3.92096 z m 12.16827,-0.11608 v -0.16122 q 0,-2.00563 0.78677,-3.60497 0.78677,-1.59934 2.19265,-2.46995 1.39942,-0.86416 3.20513,-0.86416 v 0 q 2.7795,0 4.50137,1.92179 1.72187,1.92824 1.72187,5.12692 v 0 0.16767 q 0,1.98628 -0.76743,3.57273 -0.76097,1.57999 -2.1733,2.45705 -1.41877,0.8835 -3.25672,0.8835 v 0 q -2.77305,0 -4.49492,-1.92823 -1.71542,-1.92824 -1.71542,-5.10113 z m 2.34097,0.11608 v 0 q 0,2.26359 1.05118,3.63721 1.05118,1.37363 2.81819,1.37363 v 0 q 1.77346,0 2.8182,-1.39297 1.04473,-1.39298 1.04473,-3.89517 v 0 q 0,-2.24424 -1.06408,-3.63721 -1.06408,-1.38653 -2.82464,-1.38653 v 0 q -1.72832,0 -2.78595,1.36718 -1.05763,1.37363 -1.05763,3.93386 z m 21.81842,-6.96487 3.23738,10.41507 2.61828,-10.41507 h 2.32807 l -3.96611,13.62664 h -1.88954 l -3.31477,-10.33122 -3.22447,10.33122 h -1.88955 l -3.95321,-13.62664 h 2.31518 l 2.68276,10.20225 3.17934,-10.20225 z m 21.40963,13.62664 h -2.44415 q -0.19992,-0.40628 -0.3289,-1.43811 v 0 q -1.62514,1.68962 -3.87582,1.68962 v 0 q -2.01852,0 -3.30831,-1.14146 -1.2898,-1.13502 -1.2898,-2.88913 v 0 q 0,-2.12816 1.61869,-3.30832 1.61869,-1.17371 4.55296,-1.17371 v 0 h 2.26359 v -1.07052 q 0,-1.2253 -0.72874,-1.94759 -0.72873,-0.72228 -2.15395,-0.72228 v 0 q -1.24464,0 -2.08946,0.62555 -0.84481,0.632 -0.84481,1.5284 v 0 h -2.34097 q 0,-1.02538 0.72228,-1.97338 0.72229,-0.948 1.96693,-1.50261 1.2382,-0.55461 2.72791,-0.55461 v 0 q 2.35387,0 3.6888,1.17371 1.33494,1.18016 1.38653,3.24383 v 0 6.27483 q 0,1.87665 0.47722,2.98587 v 0 z m -6.30708,-1.77346 v 0 q 1.08988,0 2.07657,-0.56751 0.98024,-0.5675 1.41877,-1.47681 v 0 -2.79239 h -1.82506 q -4.2821,0 -4.2821,2.50219 v 0 q 0,1.09632 0.73518,1.71542 0.72873,0.6191 1.87664,0.6191 z m 9.53015,0.55461 v 0 q 0,-0.6062 0.36114,-1.01248 0.36114,-0.39984 1.07697,-0.39984 0.71584,0 1.08988,0.39984 0.36759,0.40628 0.36759,1.01248 v 0 q 0,0.57396 -0.36759,0.96735 -0.37404,0.38693 -1.08988,0.38693 -0.71583,0 -1.07697,-0.38693 -0.36114,-0.39339 -0.36114,-0.96735 z m 18.25527,-5.65573 v 0.21281 q 0,3.1084 -1.42522,5.01084 -1.42522,1.90244 -3.85647,1.90244 v 0 q -2.48285,0 -3.90162,-1.57354 v 0 6.56503 h -2.33452 v -18.86964 h 2.1346 l 0.10963,1.50906 q 1.42522,-1.76057 3.95321,-1.76057 v 0 q 2.45705,0 3.88872,1.85085 1.43167,1.85085 1.43167,5.15272 z m -2.33452,-0.0516 v 0 q 0,-2.30873 -0.98024,-3.64366 -0.98024,-1.33494 -2.69566,-1.33494 v 0 q -2.11526,0 -3.17289,1.87665 v 0 6.51344 q 1.04473,1.86375 3.19868,1.86375 v 0 q 1.67673,0 2.66342,-1.32848 0.98669,-1.32849 0.98669,-3.94676 z M 269.99999,135 v 19.34686 h -2.32807 V 135 Z"
     data-box="15.00 205.07 270.00 24.85 "
     id="path11"
     style="stroke-width:0.644895" />
</svg>
