<svg xmlns="http://www.w3.org/2000/svg" id="mainLogo" viewBox="0.00 0.00 300.00 300.00 " width="1000" height="1000">
  <defs />
  <rect data-logo-bg="" fill="#ffffff" width="300" height="300" />
  <g data-refid="icon" fill="#6cc5af" data-box="96.95 70.07 106.11 117.00 " transform="matrix(1.8281247820705435 0 0 1.8281247820705435 88.71875289455022 67.1478658021595)">
    <svg xmlns="http://www.w3.org/2000/svg" xmlns:xlink="http://www.w3.org/1999/xlink" version="1.1" x="0px" y="0px" viewBox="0 0 67 67" xml:space="preserve" width="67" height="67" id="FLDSRC_ICON">
      <g>
        <path d="M62.3,37.5l-4.4-7c-0.5-0.8-0.7-1.7-0.7-2.6c0-7.3-2.9-13.9-7.7-18.6c-4.8-4.8-11.4-7.7-18.6-7.7c-7.3,0-13.9,3-18.6,7.7   C7.4,14,4.5,20.6,4.5,27.9c0,8.5,4.1,16.1,10.4,21c2.6,2,4.7,4.5,6.1,7.4c1.2,2.3,1.9,4.8,2.1,7.3c0.1,1.1,1,2,2.1,2h19.4   c1.2,0,2.1-1,2.1-2.1v-6.7c0-1.3,1.1-2.4,2.4-2.4h3.7c2.4,0,4.3-1.9,4.3-4.3v-7.3c0-1.3,1.1-2.4,2.4-2.4h1.2   C62.1,40.1,63,38.6,62.3,37.5z M32,44c-0.2,0.1-0.4,0.1-0.6,0c-1.8-1-11-6.5-15.2-13.7h7.2c0.4,0,0.8-0.2,1.1-0.6l2-3l2.2,6.9   c0.2,0.5,0.6,0.8,1.1,0.9c0.1,0,0.1,0,0.2,0c0.4,0,0.9-0.2,1.1-0.6l5.9-9.5l2.2,5.6c0.2,0.5,0.7,0.8,1.2,0.8H47   C42.6,37.8,33.8,43,32,44z M48.1,29c-0.1-0.1-0.3-0.1-0.5-0.1h-6.8l-2.6-6.6c-0.2-0.5-0.6-0.8-1.1-0.8c-0.5,0-1,0.2-1.2,0.6   l-5.9,9.4l-2.2-6.8c-0.2-0.5-0.6-0.8-1.1-0.9c-0.5-0.1-1,0.1-1.3,0.6l-2.7,3.9h-7.4c-0.2,0-0.3,0-0.4,0.1C14.4,26.7,14,25,14,23.2   c0-5.9,4.8-10.6,10.7-10.6c2.5,0,4.9,1.5,6.7,3.1c0.2,0.2,0.6,0.2,0.8,0c1.8-1.6,4.2-3.1,6.7-3.1c5.9,0,10.6,4.8,10.6,10.7   C49.5,25.3,49,27.2,48.1,29z" />
      </g>
    </svg>
  </g>
  <path data-refid="title" fill="#095959" d="M 11.17 0L 3.3 0L 3.3-28.44L 11.33-28.44Q 15.04-28.44  17.89-26.8Q 20.74-25.16  22.29-22.13Q 23.85-19.1  23.87-15.18L 23.87-15.18L 23.87-13.36Q 23.87-9.34  22.31-6.31Q 20.76-3.28  17.88-1.66Q 15-0.04  11.17 0L 11.17 0ZM 11.43-25.35L 7.05-25.35L 7.05-3.07L 11-3.07Q 15.33-3.07  17.74-5.76Q 20.16-8.46  20.16-13.44L 20.16-13.44L 20.16-15.1Q 20.16-19.94  17.88-22.63Q 15.61-25.31  11.43-25.35L 11.43-25.35ZM 37.73046875 0.39L 37.73046875 0.39Q 33.44046875 0.39  30.740468749999998-2.43Q 28.05046875-5.25  28.05046875-9.98L 28.05046875-9.98L 28.05046875-10.64Q 28.05046875-13.79  29.25046875-16.26Q 30.45046875-18.73  32.61046875-20.13Q 34.77046875-21.52  37.28046875-21.52L 37.28046875-21.52Q 41.41046875-21.52  43.69046875-18.81Q 45.98046875-16.09  45.98046875-11.04L 45.98046875-11.04L 45.98046875-9.53L 31.66046875-9.53Q 31.740468749999998-6.41  33.49046875-4.48Q 35.23046875-2.56  37.93046875-2.56L 37.93046875-2.56Q 39.84046875-2.56  41.17046875-3.34Q 42.500468749999996-4.12  43.500468749999996-5.41L 43.500468749999996-5.41L 45.70046875-3.69Q 43.05046875 0.39  37.73046875 0.39ZM 37.28046875-18.55L 37.28046875-18.55Q 35.10046875-18.55  33.61046875-16.96Q 32.13046875-15.37  31.78046875-12.5L 31.78046875-12.5L 42.360468749999995-12.5L 42.360468749999995-12.77Q 42.210468750000004-15.53  40.88046875-17.04Q 39.55046875-18.55  37.28046875-18.55ZM 68.011875-10.66L 68.011875-10.33Q 68.011875-5.51  65.801875-2.56Q 63.591875 0.39  59.821875 0.39L 59.821875 0.39Q 55.971875 0.39  53.771875-2.05L 53.771875-2.05L 53.771875 8.13L 50.151875 8.13L 50.151875-21.13L 53.461875-21.13L 53.631875-18.79Q 55.841875-21.52  59.761875-21.52L 59.761875-21.52Q 63.571875-21.52  65.791875-18.65Q 68.011875-15.78  68.011875-10.66L 68.011875-10.66ZM 64.391875-10.74L 64.391875-10.74Q 64.391875-14.32  62.871875-16.39Q 61.351875-18.46  58.691874999999996-18.46L 58.691874999999996-18.46Q 55.411875-18.46  53.771875-15.55L 53.771875-15.55L 53.771875-5.45Q 55.391875-2.56  58.731875-2.56L 58.731875-2.56Q 61.331875-2.56  62.861875-4.62Q 64.391875-6.68  64.391875-10.74ZM 82.81328125-21.25L 82.81328125-17.89Q 81.99328125-18.03  81.03328125-18.03L 81.03328125-18.03Q 77.48328125-18.03  76.21328125-15L 76.21328125-15L 76.21328125 0L 72.59328125 0L 72.59328125-21.13L 76.11328125-21.13L 76.17328125-18.69Q 77.95328125-21.52  81.21328125-21.52L 81.21328125-21.52Q 82.26328125-21.52  82.81328125-21.25L 82.81328125-21.25ZM 94.52734375000001 0.39L 94.52734375000001 0.39Q 90.23734375000001 0.39  87.53734375000002-2.43Q 84.84734375000001-5.25  84.84734375000001-9.98L 84.84734375000001-9.98L 84.84734375000001-10.64Q 84.84734375000001-13.79  86.04734375000001-16.26Q 87.24734375000001-18.73  89.40734375000001-20.13Q 91.56734375000002-21.52  94.07734375000001-21.52L 94.07734375000001-21.52Q 98.20734375-21.52  100.48734375000001-18.81Q 102.77734375000001-16.09  102.77734375000001-11.04L 102.77734375000001-11.04L 102.77734375000001-9.53L 88.45734375-9.53Q 88.53734375000002-6.41  90.28734375000002-4.48Q 92.02734375000001-2.56  94.72734375000002-2.56L 94.72734375000002-2.56Q 96.63734375000001-2.56  97.96734375000001-3.34Q 99.29734375000001-4.12  100.29734375000001-5.41L 100.29734375000001-5.41L 102.49734375000001-3.69Q 99.84734375000002 0.39  94.52734375000001 0.39ZM 94.07734375000001-18.55L 94.07734375000001-18.55Q 91.89734375000002-18.55  90.40734375000001-16.96Q 88.92734375000002-15.37  88.57734375000001-12.5L 88.57734375000001-12.5L 99.15734375000001-12.5L 99.15734375000001-12.77Q 99.00734375000002-15.53  97.67734375000002-17.04Q 96.34734375000002-18.55  94.07734375000001-18.55ZM 119.25874999999999-5.61L 119.25874999999999-5.61Q 119.25874999999999-7.07  118.15875-7.88Q 117.04875-8.69  114.30875-9.28Q 111.55875-9.86  109.94875-10.68Q 108.33875-11.5  107.56875-12.64Q 106.79875-13.77  106.79875-15.33L 106.79875-15.33Q 106.79875-17.93  108.99875-19.73Q 111.18875-21.52  114.60875-21.52L 114.60875-21.52Q 118.19875-21.52  120.43875-19.67Q 122.67875000000001-17.81  122.67875000000001-14.92L 122.67875000000001-14.92L 119.03875-14.92Q 119.03875-16.41  117.77875-17.48Q 116.51875-18.55  114.60875-18.55L 114.60875-18.55Q 112.63875-18.55  111.51875-17.7Q 110.40875-16.84  110.40875-15.45L 110.40875-15.45Q 110.40875-14.14  111.44875-13.48Q 112.47875-12.81  115.18875-12.21Q 117.88875-11.6  119.56875-10.76Q 121.24875-9.92  122.05875-8.74Q 122.86875-7.56  122.86875-5.86L 122.86875-5.86Q 122.86875-3.03  120.60875-1.32Q 118.33875 0.39  114.72875 0.39L 114.72875 0.39Q 112.18875 0.39  110.23875-0.51Q 108.27875-1.41  107.17875-3.02Q 106.07875-4.63  106.07875-6.5L 106.07875-6.5L 109.68875-6.5Q 109.78875-4.69  111.13875-3.62Q 112.49875-2.56  114.72875-2.56L 114.72875-2.56Q 116.77875-2.56  118.01875-3.39Q 119.25874999999999-4.22  119.25874999999999-5.61ZM 127.69375-21.13L 131.30375-21.13L 131.30375 2.44Q 131.30375 8.54  125.78375 8.54L 125.78375 8.54Q 124.59375 8.54 123.57375 8.18L 123.57375 8.18L 123.57375 5.29Q 124.20375 5.45  125.21375 5.45L 125.21375 5.45Q 126.42375 5.45  127.06375 4.79Q 127.69375 4.14  127.69375 2.52L 127.69375 2.52L 127.69375-21.13ZM 127.32375-26.74L 127.32375-26.74Q 127.32375-27.6  127.86375-28.21Q 128.39375-28.83  129.43375-28.83L 129.43375-28.83Q 130.48375-28.83  131.03375-28.22Q 131.58375-27.62  131.58375-26.74Q 131.58375-25.86  131.03375-25.27Q 130.48375-24.69  129.43375-24.69Q 128.38375-24.69  127.85375-25.27Q 127.32375-25.86  127.32375-26.74ZM 153.96453125 0L 150.17453125 0Q 149.86453125-0.63  149.66453125-2.23L 149.66453125-2.23Q 147.14453125 0.39  143.65453125 0.39L 143.65453125 0.39Q 140.52453125 0.39  138.52453125-1.38Q 136.52453125-3.14  136.52453125-5.86L 136.52453125-5.86Q 136.52453125-9.16  139.03453125-10.99Q 141.54453125-12.81  146.09453125-12.81L 146.09453125-12.81L 149.60453125-12.81L 149.60453125-14.47Q 149.60453125-16.37  148.47453125-17.49Q 147.34453125-18.61  145.13453125-18.61L 145.13453125-18.61Q 143.20453125-18.61  141.89453125-17.64Q 140.58453125-16.66  140.58453125-15.27L 140.58453125-15.27L 136.95453125-15.27Q 136.95453125-16.86  138.07453125-18.33Q 139.19453125-19.8  141.12453125-20.66Q 143.04453125-21.52  145.35453125-21.52L 145.35453125-21.52Q 149.00453125-21.52  151.07453125-19.7Q 153.14453125-17.87  153.22453124999998-14.67L 153.22453124999998-14.67L 153.22453124999998-4.94Q 153.22453124999998-2.03  153.96453125-0.31L 153.96453125-0.31L 153.96453125 0ZM 144.18453125-2.75L 144.18453125-2.75Q 145.87453125-2.75  147.40453125-3.63Q 148.92453125-4.51  149.60453125-5.92L 149.60453125-5.92L 149.60453125-10.25L 146.77453125-10.25Q 140.13453125-10.25  140.13453125-6.37L 140.13453125-6.37Q 140.13453125-4.67  141.27453125-3.71Q 142.40453125-2.75  144.18453125-2.75ZM 169.90234375-11.13L 163.20234375-11.13L 163.20234375 0L 159.45234375 0L 159.45234375-28.44L 169.94234375-28.44Q 174.61234375-28.44  177.25234375-26.05Q 179.90234375-23.67  179.90234375-19.75L 179.90234375-19.75Q 179.90234375-15.61  177.31234375-13.37Q 174.72234375-11.13  169.90234375-11.13L 169.90234375-11.13ZM 163.20234375-25.35L 163.20234375-14.2L 169.94234375-14.2Q 172.95234375-14.2  174.55234375-15.62Q 176.15234375-17.03  176.15234375-19.71L 176.15234375-19.71Q 176.15234375-22.25  174.55234375-23.77Q 172.95234375-25.29  170.15234375-25.35L 170.15234375-25.35L 163.20234375-25.35ZM 182.9128125-10.51L 182.9128125-10.76Q 182.9128125-13.87  184.1328125-16.35Q 185.3528125-18.83  187.5328125-20.18Q 189.7028125-21.52  192.5028125-21.52L 192.5028125-21.52Q 196.8128125-21.52  199.4828125-18.54Q 202.1528125-15.55  202.1528125-10.59L 202.1528125-10.59L 202.1528125-10.33Q 202.1528125-7.25  200.96281249999998-4.79Q 199.7828125-2.34  197.5928125-0.98Q 195.3928125 0.39  192.5428125 0.39L 192.5428125 0.39Q 188.2428125 0.39  185.5728125-2.6Q 182.9128125-5.59  182.9128125-10.51L 182.9128125-10.51ZM 186.5428125-10.33L 186.5428125-10.33Q 186.5428125-6.82  188.1728125-4.69Q 189.8028125-2.56  192.5428125-2.56L 192.5428125-2.56Q 195.2928125-2.56  196.9128125-4.72Q 198.5328125-6.88  198.5328125-10.76L 198.5328125-10.76Q 198.5328125-14.24  196.8828125-16.4Q 195.2328125-18.55  192.5028125-18.55L 192.5028125-18.55Q 189.8228125-18.55  188.1828125-16.43Q 186.5428125-14.3  186.5428125-10.33ZM 224.53531249999997-10.66L 224.53531249999997-10.33Q 224.53531249999997-5.51  222.32531249999997-2.56Q 220.11531249999996 0.39  216.34531249999998 0.39L 216.34531249999998 0.39Q 212.49531249999998 0.39  210.29531249999997-2.05L 210.29531249999997-2.05L 210.29531249999997 8.13L 206.67531249999996 8.13L 206.67531249999996-21.13L 209.98531249999996-21.13L 210.15531249999998-18.79Q 212.36531249999996-21.52  216.28531249999997-21.52L 216.28531249999997-21.52Q 220.09531249999998-21.52  222.31531249999998-18.65Q 224.53531249999997-15.78  224.53531249999997-10.66L 224.53531249999997-10.66ZM 220.91531249999997-10.74L 220.91531249999997-10.74Q 220.91531249999997-14.32  219.39531249999996-16.39Q 217.87531249999998-18.46  215.21531249999998-18.46L 215.21531249999998-18.46Q 211.93531249999998-18.46  210.29531249999997-15.55L 210.29531249999997-15.55L 210.29531249999997-5.45Q 211.91531249999997-2.56  215.25531249999997-2.56L 215.25531249999997-2.56Q 217.85531249999997-2.56  219.38531249999997-4.62Q 220.91531249999997-6.68  220.91531249999997-10.74ZM 228.16671874999997-10.51L 228.16671874999997-10.76Q 228.16671874999997-13.87  229.38671874999997-16.35Q 230.60671874999997-18.83  232.78671874999998-20.18Q 234.95671874999996-21.52  237.75671874999998-21.52L 237.75671874999998-21.52Q 242.06671874999998-21.52  244.73671874999997-18.54Q 247.40671874999998-15.55  247.40671874999998-10.59L 247.40671874999998-10.59L 247.40671874999998-10.33Q 247.40671874999998-7.25  246.21671874999998-4.79Q 245.03671874999998-2.34  242.84671874999998-0.98Q 240.64671874999996 0.39  237.79671874999997 0.39L 237.79671874999997 0.39Q 233.49671874999999 0.39  230.82671874999997-2.6Q 228.16671874999997-5.59  228.16671874999997-10.51L 228.16671874999997-10.51ZM 231.79671874999997-10.33L 231.79671874999997-10.33Q 231.79671874999997-6.82  233.42671874999996-4.69Q 235.05671874999996-2.56  237.79671874999997-2.56L 237.79671874999997-2.56Q 240.54671874999997-2.56  242.16671874999997-4.72Q 243.78671874999998-6.88  243.78671874999998-10.76L 243.78671874999998-10.76Q 243.78671874999998-14.24  242.13671874999997-16.4Q 240.48671874999997-18.55  237.75671874999998-18.55L 237.75671874999998-18.55Q 235.07671874999997-18.55  233.43671874999998-16.43Q 231.79671874999997-14.3  231.79671874999997-10.33ZM 262.14921875-21.25L 262.14921875-17.89Q 261.32921875-18.03  260.36921874999996-18.03L 260.36921874999996-18.03Q 256.81921874999995-18.03  255.54921874999997-15L 255.54921874999997-15L 255.54921874999997 0L 251.92921874999996 0L 251.92921874999996-21.13L 255.44921874999997-21.13L 255.50921874999997-18.69Q 257.28921875-21.52  260.54921874999997-21.52L 260.54921874999997-21.52Q 261.59921875-21.52  262.14921875-21.25L 262.14921875-21.25ZM 264.12375-10.51L 264.12375-10.76Q 264.12375-13.87  265.34375-16.35Q 266.56375-18.83  268.74375-20.18Q 270.91375-21.52  273.71375-21.52L 273.71375-21.52Q 278.02375-21.52  280.69375-18.54Q 283.36375-15.55  283.36375-10.59L 283.36375-10.59L 283.36375-10.33Q 283.36375-7.25  282.17375-4.79Q 280.99375-2.34  278.80375-0.98Q 276.60375 0.39  273.75375 0.39L 273.75375 0.39Q 269.45375 0.39  266.78375-2.6Q 264.12375-5.59  264.12375-10.51L 264.12375-10.51ZM 267.75375-10.33L 267.75375-10.33Q 267.75375-6.82  269.38375-4.69Q 271.01375-2.56  273.75375-2.56L 273.75375-2.56Q 276.50375-2.56  278.12375-4.72Q 279.74375-6.88  279.74375-10.76L 279.74375-10.76Q 279.74375-14.24  278.09375-16.4Q 276.44375-18.55  273.71375-18.55L 273.71375-18.55Q 271.03375-18.55  269.39375-16.43Q 267.75375-14.3  267.75375-10.33ZM 287.01625-10.47L 287.01625-10.74Q 287.01625-15.61  289.31625-18.56Q 291.61625-21.52  295.35625-21.52L 295.35625-21.52Q 299.06625-21.52  301.22625-18.98L 301.22625-18.98L 301.22625-30L 304.84625-30L 304.84625 0L 301.52625 0L 301.34625-2.27Q 299.17625 0.39  295.31625 0.39L 295.31625 0.39Q 291.63625 0.39  289.32625-2.62Q 287.01625-5.63  287.01625-10.47L 287.01625-10.47ZM 290.62625-10.33L 290.62625-10.33Q 290.62625-6.74  292.10625-4.71Q 293.59625-2.68  296.20625-2.68L 296.20625-2.68Q 299.64625-2.68  301.22625-5.76L 301.22625-5.76L 301.22625-15.47Q 299.60625-18.46  296.24625-18.46L 296.24625-18.46Q 293.59625-18.46  292.10625-16.41Q 290.62625-14.36  290.62625-10.33ZM 309.49484375-10.51L 309.49484375-10.76Q 309.49484375-13.87  310.71484375-16.35Q 311.93484375-18.83  314.11484375-20.18Q 316.28484375-21.52  319.08484375-21.52L 319.08484375-21.52Q 323.39484375-21.52  326.06484375-18.54Q 328.73484375-15.55  328.73484375-10.59L 328.73484375-10.59L 328.73484375-10.33Q 328.73484375-7.25  327.54484375-4.79Q 326.36484375-2.34  324.17484375-0.98Q 321.97484375 0.39  319.12484375 0.39L 319.12484375 0.39Q 314.82484375 0.39  312.15484375-2.6Q 309.49484375-5.59  309.49484375-10.51L 309.49484375-10.51ZM 313.12484375-10.33L 313.12484375-10.33Q 313.12484375-6.82  314.75484375-4.69Q 316.38484375-2.56  319.12484375-2.56L 319.12484375-2.56Q 321.87484375-2.56  323.49484375-4.72Q 325.11484375-6.88  325.11484375-10.76L 325.11484375-10.76Q 325.11484375-14.24  323.46484375-16.4Q 321.81484375-18.55  319.08484375-18.55L 319.08484375-18.55Q 316.40484375-18.55  314.76484375-16.43Q 313.12484375-14.3  313.12484375-10.33ZM 346.95734375-21.13L 351.97734375-4.98L 356.03734375-21.13L 359.64734375-21.13L 353.49734375 0L 350.56734375 0L 345.42734375-16.02L 340.42734375 0L 337.49734375 0L 331.36734375-21.13L 334.95734375-21.13L 339.11734375-5.31L 344.04734375-21.13L 346.95734375-21.13ZM 380.1559375 0L 376.3659375 0Q 376.0559375-0.63  375.8559375-2.23L 375.8559375-2.23Q 373.3359375 0.39  369.8459375 0.39L 369.8459375 0.39Q 366.7159375 0.39  364.7159375-1.38Q 362.7159375-3.14  362.7159375-5.86L 362.7159375-5.86Q 362.7159375-9.16  365.2259375-10.99Q 367.7359375-12.81  372.2859375-12.81L 372.2859375-12.81L 375.7959375-12.81L 375.7959375-14.47Q 375.7959375-16.37  374.6659375-17.49Q 373.5359375-18.61  371.3259375-18.61L 371.3259375-18.61Q 369.3959375-18.61  368.0859375-17.64Q 366.7759375-16.66  366.7759375-15.27L 366.7759375-15.27L 363.1459375-15.27Q 363.1459375-16.86  364.2659375-18.33Q 365.3859375-19.8  367.3159375-20.66Q 369.2359375-21.52  371.5459375-21.52L 371.5459375-21.52Q 375.1959375-21.52  377.2659375-19.7Q 379.3359375-17.87  379.4159375-14.67L 379.4159375-14.67L 379.4159375-4.94Q 379.4159375-2.03  380.1559375-0.31L 380.1559375-0.31L 380.1559375 0ZM 370.3759375-2.75L 370.3759375-2.75Q 372.0659375-2.75  373.5959375-3.63Q 375.1159375-4.51  375.7959375-5.92L 375.7959375-5.92L 375.7959375-10.25L 372.9659375-10.25Q 366.3259375-10.25  366.3259375-6.37L 366.3259375-6.37Q 366.3259375-4.67  367.4659375-3.71Q 368.5959375-2.75  370.3759375-2.75ZM 385.15375-1.89L 385.15375-1.89Q 385.15375-2.83  385.71375-3.46Q 386.27375-4.08  387.38375-4.08Q 388.49375-4.08  389.07375-3.46Q 389.64375-2.83  389.64375-1.89L 389.64375-1.89Q 389.64375-1  389.07375-0.39Q 388.49375 0.21  387.38375 0.21Q 386.27375 0.21  385.71375-0.39Q 385.15375-1  385.15375-1.89ZM 413.46109375-10.66L 413.46109375-10.33Q 413.46109375-5.51  411.25109375-2.56Q 409.04109375 0.39  405.27109375 0.39L 405.27109375 0.39Q 401.42109375 0.39  399.22109375-2.05L 399.22109375-2.05L 399.22109375 8.13L 395.60109375 8.13L 395.60109375-21.13L 398.91109375-21.13L 399.08109375-18.79Q 401.29109375-21.52  405.21109375-21.52L 405.21109375-21.52Q 409.02109375-21.52  411.24109375-18.65Q 413.46109375-15.78  413.46109375-10.66L 413.46109375-10.66ZM 409.84109375-10.74L 409.84109375-10.74Q 409.84109375-14.32  408.32109375-16.39Q 406.80109375-18.46  404.14109375-18.46L 404.14109375-18.46Q 400.86109375-18.46  399.22109375-15.55L 399.22109375-15.55L 399.22109375-5.45Q 400.84109375-2.56  404.18109375-2.56L 404.18109375-2.56Q 406.78109375-2.56  408.31109375-4.62Q 409.84109375-6.68  409.84109375-10.74ZM 421.9725000000001-30L 421.9725000000001 0L 418.36250000000007 0L 418.36250000000007-30L 421.9725000000001-30Z" data-box="15.00 205.07 270.00 24.85 " transform="matrix(0.6448954487482781 0 0 0.6448954487482781 12.871845049881694 224.41972786985932)" />
</svg>