<?xml version="1.0" encoding="UTF-8" standalone="no"?>
<svg
   xmlns:dc="http://purl.org/dc/elements/1.1/"
   xmlns:cc="http://creativecommons.org/ns#"
   xmlns:rdf="http://www.w3.org/1999/02/22-rdf-syntax-ns#"
   xmlns:svg="http://www.w3.org/2000/svg"
   xmlns="http://www.w3.org/2000/svg"
   xmlns:sodipodi="http://sodipodi.sourceforge.net/DTD/sodipodi-0.dtd"
   xmlns:inkscape="http://www.inkscape.org/namespaces/inkscape"
   id="mainLogo"
   viewBox="0 0 106.10937 116.99999"
   width="1768.4895"
   height="1949.9998"
   version="1.1"
   sodipodi:docname="favicon.svg"
   inkscape:version="1.0.1 (3bc2e813f5, 2020-09-07)">
  <metadata
     id="metadata16">
    <rdf:RDF>
      <cc:Work
         rdf:about="">
        <dc:format>image/svg+xml</dc:format>
        <dc:type
           rdf:resource="http://purl.org/dc/dcmitype/StillImage" />
        <dc:title></dc:title>
      </cc:Work>
    </rdf:RDF>
  </metadata>
  <sodipodi:namedview
     pagecolor="#ffffff"
     bordercolor="#666666"
     borderopacity="1"
     objecttolerance="10"
     gridtolerance="10"
     guidetolerance="10"
     inkscape:pageopacity="0"
     inkscape:pageshadow="2"
     inkscape:window-width="2560"
     inkscape:window-height="1412"
     id="namedview14"
     showgrid="false"
     inkscape:zoom="0.33754122"
     inkscape:cx="794.79416"
     inkscape:cy="1186.1702"
     inkscape:window-x="0"
     inkscape:window-y="0"
     inkscape:window-maximized="1"
     inkscape:current-layer="mainLogo" />
  <defs
     id="defs2" />
  <g
     data-refid="icon"
     fill="#6cc5af"
     data-box="96.95 70.07 106.11 117.00 "
     transform="matrix(1.8281248,0,0,1.8281248,-8.2265614,-2.9249995)"
     id="g9">
    <svg
       version="1.1"
       x="0px"
       y="0px"
       viewBox="0 0 67 67"
       xml:space="preserve"
       width="67"
       height="67"
       id="FLDSRC_ICON">
      <g
   id="g6">
        <path
   d="m 62.3,37.5 -4.4,-7 C 57.4,29.7 57.2,28.8 57.2,27.9 57.2,20.6 54.3,14 49.5,9.3 44.7,4.5 38.1,1.6 30.9,1.6 23.6,1.6 17,4.6 12.3,9.3 7.4,14 4.5,20.6 4.5,27.9 c 0,8.5 4.1,16.1 10.4,21 2.6,2 4.7,4.5 6.1,7.4 1.2,2.3 1.9,4.8 2.1,7.3 0.1,1.1 1,2 2.1,2 h 19.4 c 1.2,0 2.1,-1 2.1,-2.1 v -6.7 c 0,-1.3 1.1,-2.4 2.4,-2.4 h 3.7 c 2.4,0 4.3,-1.9 4.3,-4.3 v -7.3 c 0,-1.3 1.1,-2.4 2.4,-2.4 h 1.2 c 1.4,-0.3 2.3,-1.8 1.6,-2.9 z M 32,44 c -0.2,0.1 -0.4,0.1 -0.6,0 -1.8,-1 -11,-6.5 -15.2,-13.7 h 7.2 c 0.4,0 0.8,-0.2 1.1,-0.6 l 2,-3 2.2,6.9 c 0.2,0.5 0.6,0.8 1.1,0.9 0.1,0 0.1,0 0.2,0 0.4,0 0.9,-0.2 1.1,-0.6 L 37,24.4 39.2,30 c 0.2,0.5 0.7,0.8 1.2,0.8 H 47 C 42.6,37.8 33.8,43 32,44 Z M 48.1,29 C 48,28.9 47.8,28.9 47.6,28.9 h -6.8 l -2.6,-6.6 c -0.2,-0.5 -0.6,-0.8 -1.1,-0.8 -0.5,0 -1,0.2 -1.2,0.6 L 30,31.5 27.8,24.7 c -0.2,-0.5 -0.6,-0.8 -1.1,-0.9 -0.5,-0.1 -1,0.1 -1.3,0.6 l -2.7,3.9 h -7.4 c -0.2,0 -0.3,0 -0.4,0.1 C 14.4,26.7 14,25 14,23.2 c 0,-5.9 4.8,-10.6 10.7,-10.6 2.5,0 4.9,1.5 6.7,3.1 0.2,0.2 0.6,0.2 0.8,0 1.8,-1.6 4.2,-3.1 6.7,-3.1 5.9,0 10.6,4.8 10.6,10.7 0,2 -0.5,3.9 -1.4,5.7 z"
   id="path4" />
      </g>
    </svg>
  </g>
</svg>
